<svg id="Layer_1" data-name="Layer 1" xmlns="http://www.w3.org/2000/svg" viewBox="0 0 139 133.01"><defs><style>.cls-1,.cls-2{fill:none;stroke:#d6d6d6;stroke-miterlimit:10;}.cls-1{stroke-width:3px;}.cls-2{stroke-width:2px;}.cls-3{fill:#d3afaf;}</style></defs><title>calendar</title><rect class="cls-1" x="1.5" y="11.67" width="136" height="119.85" rx="5" ry="5"/><rect class="cls-2" x="15.67" y="38.46" width="28.33" height="18.33"/><rect class="cls-2" x="55.17" y="38.46" width="28.33" height="18.33"/><rect class="cls-2" x="94.67" y="38.46" width="28.33" height="18.33"/><rect class="cls-2" x="15.67" y="68.96" width="28.33" height="18.33"/><rect class="cls-2" x="94.67" y="68.96" width="28.33" height="18.33"/><rect class="cls-2" x="15.67" y="99.46" width="28.33" height="18.33"/><rect class="cls-2" x="55.17" y="99.46" width="28.33" height="18.33"/><rect class="cls-2" x="94.67" y="99.46" width="28.33" height="18.33"/><line class="cls-1" x1="30.33" x2="30.33" y2="18.5"/><line class="cls-1" x1="108.33" x2="108.33" y2="18.5"/><circle class="cls-2" cx="30.33" cy="23.63" r="4.83"/><circle class="cls-2" cx="108.33" cy="23.63" r="4.83"/><path class="cls-3" d="M96.26,103.68c15.09-11.86,14.52-16.07,14.52-19.36a7.37,7.37,0,0,0-7.26-7.26c-4.54,0-7.26,4.84-7.26,4.84S93.54,77.06,89,77.06a7.37,7.37,0,0,0-7.26,7.26C81.74,87.61,81.17,91.82,96.26,103.68Z" transform="translate(-26.5 -12.2)"/></svg>